name rise30.9205peak61.366fall85.3838.mot
datacolumns 19
datarows 11
range 17.82993400000000 17.84660400000000
endheader
time	ground_force1_vx	ground_force1_vy	ground_force1_vz	ground_force1_px	ground_force1_py	ground_force1_pz	ground_force2_vx	ground_force2_vy	ground_force2_vz	ground_force2_px	ground_force2_py	ground_force2_pz	ground_torque1_x	ground_torque1_y	ground_torque1_z	ground_torque2_x	ground_torque2_y	ground_torque2_z	
17.82993400000000	-53.31919300000000	834.12910699999998	60.98834200000000	0.11883100000000	0.00000000000000	0.12221700000000	-2.43898400000000	7.19086600000000	1.75979600000000	0.00000000000000	0.00000000000000	0.00000000000000	0.00000000000000	24.66675600000000	0.00000000000000	0.00000000000000	0.62214000000000	0.00000000000000	
17.83161000000000	-53.64159800000000	831.64648999999997	60.87207300000000	0.11815900000000	0.00000000000000	0.12221800000000	-3.48490800000000	11.22854300000000	2.60503800000000	0.00000000000000	0.00000000000000	0.00000000000000	0.00000000000000	24.59020800000000	0.00000000000000	0.00000000000000	0.92880600000000	0.00000000000000	
17.83326600000000	-53.98045600000000	829.05077600000004	60.73665600000000	0.11749700000000	0.00000000000000	0.12221700000000	-4.62361800000000	15.89048100000000	3.54933400000000	0.00000000000000	0.00000000000000	0.00000000000000	0.00000000000000	24.51589000000000	0.00000000000000	0.00000000000000	1.27342700000000	0.00000000000000	
17.83493800000000	-54.33636300000000	826.34258499999999	60.58185300000000	0.11684600000000	0.00000000000000	0.12221300000000	-5.81634900000000	21.09580700000000	4.56721900000000	0.00000000000000	0.00000000000000	0.00000000000000	0.00000000000000	24.44397700000000	0.00000000000000	0.00000000000000	1.64730100000000	0.00000000000000	
17.83660300000000	-54.70986100000000	823.52252599999997	60.40743900000000	0.11620500000000	0.00000000000000	0.12220600000000	-7.01896800000000	26.73897700000000	5.62836400000000	0.36466100000000	0.00000000000000	-0.04947300000000	0.00000000000000	24.37462600000000	0.00000000000000	0.00000000000000	3.74513500000000	0.00000000000000	
17.83826800000000	-55.10143000000000	820.59118699999999	60.21320900000000	0.11557400000000	0.00000000000000	0.12219700000000	-8.18519100000000	32.69847200000000	6.69982700000000	0.36962300000000	0.00000000000000	-0.05031400000000	0.00000000000000	24.30797900000000	0.00000000000000	0.00000000000000	4.50442700000000	0.00000000000000	
17.83993800000000	-55.51148800000000	817.54912999999999	59.99897500000000	0.11495200000000	0.00000000000000	0.12218400000000	-9.27007500000000	38.84706600000000	7.74857700000000	0.37424000000000	0.00000000000000	-0.05108300000000	0.00000000000000	24.24415700000000	0.00000000000000	0.00000000000000	5.26170000000000	0.00000000000000	
17.84160300000000	-55.94038500000000	814.39688500000000	59.76456800000000	0.11433900000000	0.00000000000000	0.12216900000000	-10.23330100000000	45.06221400000000	8.74394200000000	0.37854400000000	0.00000000000000	-0.05179200000000	0.00000000000000	24.18326500000000	0.00000000000000	0.00000000000000	5.99578800000000	0.00000000000000	
17.84326400000000	-56.38840200000000	811.13494100000003	59.50983500000000	0.11373500000000	0.00000000000000	0.12215000000000	-11.04182400000000	51.23519200000000	9.65966900000000	0.38256300000000	0.00000000000000	-0.05244900000000	0.00000000000000	24.12538800000000	0.00000000000000	0.00000000000000	6.68801900000000	0.00000000000000	
17.84493500000000	-56.85574600000000	807.76374199999998	59.23464200000000	0.11314000000000	0.00000000000000	0.12212800000000	-11.67163500000000	57.27801900000000	10.47538700000000	0.38632300000000	0.00000000000000	-0.05306100000000	0.00000000000000	24.07059000000000	0.00000000000000	0.00000000000000	7.32332800000000	0.00000000000000	
17.84660400000000	-57.34254500000000	804.28368000000000	58.93887300000000	0.11255300000000	0.00000000000000	0.12210300000000	-12.10855700000000	63.12770900000000	11.17739100000000	0.38984200000000	0.00000000000000	-0.05363600000000	0.00000000000000	24.01891500000000	0.00000000000000	0.00000000000000	7.89092500000000	0.00000000000000	
